<svg id="Capa_1" enable-background="new 0 0 512 512" height="512" viewBox="0 0 512 512" width="512" xmlns="http://www.w3.org/2000/svg"><g><g><g><path d="m512 324.8c0-2.652-1.054-5.196-2.93-7.072-1.875-1.875-4.419-2.929-7.072-2.928-76.006.013-156.716 21.277-222.217 58.445-13.483-8.757-27.877-16.98-43.089-24.581-69.474-34.715-149.98-53.841-226.691-53.855 0 0 0 0-.001 0-2.652 0-5.195 1.053-7.07 2.928-1.876 1.876-2.93 4.42-2.93 7.073v188.025c0 5.523 4.477 10 10 10h84.794c5.523 0 10-4.477 10-10s-4.477-10-10-10h-74.794v-93.335c45.931 1.417 96.787 12.355 141.148 30.5 41.076 16.8 74.523 38.707 96.347 62.835h-72.288c-5.523 0-10 4.477-10 10s4.477 10 10 10h316.793c5.523 0 10-4.477 10-10zm-20 10.129v46.644c-51.315 1.648-107.728 15.684-153.951 38.387-11.905-11.913-25.243-23.298-39.867-34.019 58.049-31.037 127.423-49.321 193.818-51.012zm-208.751 147.906c-23.083-31.726-63.498-60.474-114.53-81.347-47.405-19.389-99.815-30.631-148.719-32.002v-54.562c70.629 1.589 144.015 19.782 207.753 51.631 61.307 30.634 108.334 71.504 134.212 116.28zm208.751 0h-107.287c-8.336-16.393-19.224-32.325-32.388-47.541 42.514-19.878 93.275-32.139 139.675-33.712z"/><path d="m180.063 189.451c-20.247 9.963-34.219 30.823-34.219 54.867 0 5.523 4.477 10 10 10h255.43c5.095 0 9.375-3.83 9.938-8.894.285-2.558.429-5.096.429-7.544 0-37.239-30.306-67.535-67.556-67.535-5.518 0-10.959.661-16.252 1.969-15.18-17.358-37.311-27.532-60.53-27.532-.884 0-1.764.014-2.643.042 1.484-5.65 2.247-11.497 2.247-17.393 0-37.651-30.631-68.283-68.283-68.283s-68.283 30.631-68.283 68.283c.001 27.462 16.295 51.188 39.722 62.02zm146.102.276c2.627 3.618 7.336 5.053 11.535 3.514 5.237-1.921 10.75-2.895 16.385-2.895 25.024 0 45.595 19.419 47.424 43.972h-234.434c4.48-17.844 20.664-31.097 39.885-31.097 1.953 0 3.953.146 5.945.434 4.267.617 8.452-1.573 10.378-5.432 10.294-20.627 30.994-33.441 54.02-33.441 19.256 0 37.522 9.325 48.862 24.945zm-117.54-110.578c26.623 0 48.283 21.66 48.283 48.283 0 7.454-1.719 14.793-4.995 21.412-14.867 4.911-27.988 14.096-37.751 26.557-1.833.209-3.687.314-5.537.314-26.623 0-48.283-21.66-48.283-48.283s21.66-48.283 48.283-48.283z"/><path d="m208.625 44.926c5.523 0 10-4.477 10-10v-15.76c0-5.523-4.477-10-10-10s-10 4.477-10 10v15.76c0 5.523 4.477 10 10 10z"/><path d="m291.131 127.432c0 5.523 4.477 10 10 10h15.76c5.523 0 10-4.477 10-10s-4.477-10-10-10h-15.76c-5.523 0-10 4.477-10 10z"/><path d="m100.358 137.432h15.76c5.523 0 10-4.477 10-10s-4.477-10-10-10h-15.76c-5.523 0-10 4.477-10 10s4.477 10 10 10z"/><path d="m274.037 72.021c2.559 0 5.119-.976 7.071-2.929l11.144-11.144c3.905-3.905 3.905-10.237 0-14.143-3.905-3.905-10.237-3.905-14.142 0l-11.144 11.144c-3.905 3.905-3.905 10.237 0 14.143 1.952 1.952 4.512 2.929 7.071 2.929z"/><path d="m150.285 185.773c-3.904-3.906-10.237-3.905-14.142-.001l-11.145 11.144c-3.905 3.905-3.906 10.237 0 14.142 1.953 1.953 4.512 2.929 7.071 2.929s5.119-.977 7.071-2.929l11.145-11.144c3.904-3.904 3.905-10.235 0-14.141z"/><path d="m136.143 69.092c1.953 1.953 4.512 2.929 7.071 2.929s5.119-.977 7.071-2.929c3.905-3.905 3.905-10.237-.001-14.142l-11.144-11.145c-3.905-3.905-10.237-3.905-14.142 0s-3.905 10.237 0 14.142z"/><path d="m149.42 489.01c-1.611-3.866-5.579-6.387-9.771-6.16-4.161.225-7.817 3.097-9.029 7.08-1.214 3.99.249 8.453 3.606 10.934 3.264 2.412 7.78 2.606 11.231.462 4.099-2.548 5.824-7.85 3.963-12.316z"/></g></g></g></svg>