<svg height="512" viewBox="0 0 60 60" width="512" xmlns="http://www.w3.org/2000/svg"><g id="Page-1" fill="none" fill-rule="evenodd"><g id="012---Farm-House" fill="rgb(0,0,0)" fill-rule="nonzero" transform="translate(-1)"><path id="Shape" d="m27 27h8c1.1045695 0 2-.8954305 2-2v-8c0-1.1045695-.8954305-2-2-2h-8c-1.1045695 0-2 .8954305-2 2v8c0 1.1045695.8954305 2 2 2zm0-10h8v8h-8z"/><path id="Shape" d="m31.293 19.293-2 2c-.2599566.2510745-.3642126.6228779-.2726972.9725073.0915155.3496295.3645604.6226744.7141899.7141899.3496294.0915154.7214328-.0127406.9725073-.2726972l2-2c.3789722-.3923789.3735524-1.0160848-.0121814-1.4018186s-1.0094397-.3911536-1.4018186-.0121814z"/><path id="Shape" d="m17 30c0 .5522847.4477153 1 1 1h33c.5522847 0 1-.4477153 1-1s-.4477153-1-1-1h-33c-.5522847 0-1 .4477153-1 1z"/><path id="Shape" d="m13 26h9c.5522847 0 1-.4477153 1-1s-.4477153-1-1-1h-9c-.5522847 0-1 .4477153-1 1s.4477153 1 1 1z"/><path id="Shape" d="m15 21h7c.5522847 0 1-.4477153 1-1s-.4477153-1-1-1h-7c-.5522847 0-1 .4477153-1 1s.4477153 1 1 1z"/><path id="Shape" d="m29 12h4c.5522847 0 1-.4477153 1-1s-.4477153-1-1-1h-4c-.5522847 0-1 .4477153-1 1s.4477153 1 1 1z"/><path id="Shape" d="m20 16h2c.5522847 0 1-.4477153 1-1s-.4477153-1-1-1h-2c-.5522847 0-1 .4477153-1 1s.4477153 1 1 1z"/><path id="Shape" d="m40 26h9c.5522847 0 1-.4477153 1-1s-.4477153-1-1-1h-9c-.5522847 0-1 .4477153-1 1s.4477153 1 1 1z"/><path id="Shape" d="m40 21h7c.5522847 0 1-.4477153 1-1s-.4477153-1-1-1h-7c-.5522847 0-1 .4477153-1 1s.4477153 1 1 1z"/><path id="Shape" d="m40 16h2c.5522847 0 1-.4477153 1-1s-.4477153-1-1-1h-2c-.5522847 0-1 .4477153-1 1s.4477153 1 1 1z"/><path id="Shape" d="m15 30c0-.5522847-.4477153-1-1-1h-3c-.5522847 0-1 .4477153-1 1s.4477153 1 1 1h3c.5522847 0 1-.4477153 1-1z"/><path id="Shape" d="m13 34h-3c-.55228475 0-1 .4477153-1 1s.44771525 1 1 1h3c.5522847 0 1-.4477153 1-1s-.4477153-1-1-1z"/><path id="Shape" d="m12 39h-2c-.55228475 0-1 .4477153-1 1s.44771525 1 1 1h2c.5522847 0 1-.4477153 1-1s-.4477153-1-1-1z"/><path id="Shape" d="m12 44h-2c-.55228475 0-1 .4477153-1 1s.44771525 1 1 1h2c.5522847 0 1-.4477153 1-1s-.4477153-1-1-1z"/><path id="Shape" d="m12 49h-2c-.55228475 0-1 .4477153-1 1s.44771525 1 1 1h2c.5522847 0 1-.4477153 1-1s-.4477153-1-1-1z"/><path id="Shape" d="m12 54h-2c-.55228475 0-1 .4477153-1 1s.44771525 1 1 1h2c.5522847 0 1-.4477153 1-1s-.4477153-1-1-1z"/><path id="Shape" d="m49 34c-.5522847 0-1 .4477153-1 1s.4477153 1 1 1h3c.5522847 0 1-.4477153 1-1s-.4477153-1-1-1z"/><path id="Shape" d="m52 39h-2c-.5522847 0-1 .4477153-1 1s.4477153 1 1 1h2c.5522847 0 1-.4477153 1-1s-.4477153-1-1-1z"/><path id="Shape" d="m52 44h-2c-.5522847 0-1 .4477153-1 1s.4477153 1 1 1h2c.5522847 0 1-.4477153 1-1s-.4477153-1-1-1z"/><path id="Shape" d="m52 49h-2c-.5522847 0-1 .4477153-1 1s.4477153 1 1 1h2c.5522847 0 1-.4477153 1-1s-.4477153-1-1-1z"/><path id="Shape" d="m52 54h-2c-.5522847 0-1 .4477153-1 1s.4477153 1 1 1h2c.5522847 0 1-.4477153 1-1s-.4477153-1-1-1z"/><path id="Shape" d="m2 60h58c.5522847 0 1-.4477153 1-1s-.4477153-1-1-1h-3v-26.186c1.1313605.4107476 2.3987323.1010809 3.2132027-.7851066s1.0163367-2.1751307.5117973-3.2678934l-7.273-15.772c-.3761438-.8135031-1.0150991-1.4767627-1.814-1.883l-19.286-9.783c-.8505036-.42956741-1.8544964-.42956741-2.705 0l-19.284 9.782c-.79906323.4068188-1.43826479 1.0703206-1.815 1.884l-7.273 15.772c-.50598809 1.0931108-.3048976 2.38327.50976203 3.2705382.81465964.8872682 2.083004 1.197511 3.21523797.7864618v26.182h-3c-.55228475 0-1 .4477153-1 1s.44771525 1 1 1zm19-18.741 8.513 7.741-8.513 7.739zm10 9.091 8.414 7.65h-16.828zm10 6.389-8.513-7.739 8.513-7.741zm-10-9.092-8.411-7.647h16.822zm12 10.353v-18c0-1.1045695-.8954305-2-2-2h-20c-1.1045695 0-2 .8954305-2 2v18h-2v-21c0-.5522847.4477153-1 1-1h26c.5522847 0 1 .4477153 1 1v21zm-39.425-28.091c-.49518503-.2282919-.71180177-.8145893-.484-1.31l7.273-15.772c.1863448-.4047319.5033158-.7350862.9-.938l19.287-9.782c.2830476-.14262859.6169524-.14262859.9 0l19.282 9.783c.3967082.2024065.7137318.5324633.9.937l7.276 15.773c.2278018.4954107.011185 1.0817081-.484 1.31-.4962857.2274362-1.0830696.011135-1.313-.484l-6.693-14.517c-.3784035-.8138721-1.0189097-1.4772661-1.819-1.884l-16.247-8.243c-.8501579-.43101632-1.8548421-.43101632-2.705 0l-16.248 8.243c-.7985962.4074491-1.4376176 1.0707638-1.815 1.884l-6.697 14.516c-.22952815.4955713-.81673717.7120292-1.313.484zm3.425-.288 6.4-13.874c.1863448-.4047319.5033158-.7350862.9-.938l16.253-8.244c.281684-.14095476.613316-.14095476.895 0l16.252 8.244c.3966842.2029138.7136552.5332681.9.938l6.4 13.874v28.379h-8v-21c0-1.6568542-1.3431458-3-3-3h-26c-1.6568542 0-3 1.3431458-3 3v21h-8z"/></g></g></svg>