<?xml version="1.0" encoding="iso-8859-1"?>
<!-- Generator: Adobe Illustrator 19.0.0, SVG Export Plug-In . SVG Version: 6.00 Build 0)  -->
<svg version="1.1" id="Capa_1" xmlns="http://www.w3.org/2000/svg" xmlns:xlink="http://www.w3.org/1999/xlink" x="0px" y="0px"
	 viewBox="0 0 462.6 462.6" style="enable-background:new 0 0 462.6 462.6;" xml:space="preserve">
<g>
	<g>
		<path d="M383.78,400.36L242.66,74.6c20.12-6.274,31.344-27.67,25.07-47.79c-6.274-20.12-27.67-31.344-47.79-25.07
			c-20.12,6.274-31.344,27.67-25.07,47.79c3.732,11.967,13.103,21.338,25.07,25.07L78.82,400.36c-0.431,1.011-0.649,2.101-0.64,3.2
			c0,6.08,4.32,59.04,153.12,59.04s153.12-52.96,153.12-59.04C384.429,402.461,384.211,401.371,383.78,400.36z M209.14,38.36
			c0-12.239,9.921-22.16,22.16-22.16s22.16,9.921,22.16,22.16c0,12.239-9.921,22.16-22.16,22.16S209.14,50.599,209.14,38.36z
			 M231.3,88.6l29.84,68.88l-42.8-38.88L231.3,88.6z M211.62,134.12l64.96,59.04l28.08,64.96l-105.84-94.4L211.62,134.12z
			 M192.1,179.16l128,113.76l30.8,71.04L179.14,209L192.1,179.16z M172.5,224.52l162.8,147.52c-11.507,4.39-23.437,7.581-35.6,9.52
			L159.3,255.4L172.5,224.52z M152.26,271.4L279.3,384.36c-15.951,1.564-31.972,2.312-48,2.24h-0.8l-92.48-82.64L152.26,271.4z
			 M131.3,319.4l74.56,66.56c-51.44-2.4-79.12-12.24-94-21.6L131.3,319.4z M231.3,446.6c-120,0-135.12-35.04-136.88-41.92
			l11.04-25.44c26.08,15.52,68.24,23.36,125.84,23.36c57.6,0,99.76-8,125.84-23.36l10.96,25.36
			C366.26,411.88,351.3,446.6,231.3,446.6z"/>
	</g>
</g>
<g>
</g>
<g>
</g>
<g>
</g>
<g>
</g>
<g>
</g>
<g>
</g>
<g>
</g>
<g>
</g>
<g>
</g>
<g>
</g>
<g>
</g>
<g>
</g>
<g>
</g>
<g>
</g>
<g>
</g>
</svg>
